Coordinates
version=1
nRows=11
nColumns=36
inDegrees=yes

Units are S.I. units (second, meters, Newtons, ...)
If the header above contains a line with 'inDegrees', this indicates whether rotational values are in degrees (yes) or radians (no).

endheader
time	pelvis_tilt	pelvis_list	pelvis_rotation	pelvis_tx	pelvis_ty	pelvis_tz	hip_flexion_r	hip_adduction_r	hip_rotation_r	knee_angle_r	knee_angle_r_beta	ankle_angle_r	subtalar_angle_r	mtp_angle_r	hip_flexion_l	hip_adduction_l	hip_rotation_l	knee_angle_l	knee_angle_l_beta	ankle_angle_l	subtalar_angle_l	mtp_angle_l	lumbar_extension	lumbar_bending	lumbar_rotation	arm_flex_r	arm_add_r	arm_rot_r	elbow_flex_r	pro_sup_r	arm_flex_l	arm_add_l	arm_rot_l	elbow_flex_l	pro_sup_l
      0.69000000	    -12.22733047	     -2.12463854	      0.41687927	     -0.73990190	      1.42313129	     -0.60496810	     22.62929781	     -0.01606076	     -4.25967417	     43.88985509	      0.76602248	    -16.06973037	    -13.15791895	     -4.30695101	     15.54791172	     -1.61645415	     -4.69708994	     38.21328441	      0.66694763	    -18.63458643	     -8.82201916	     -4.30695101	     -4.09942865	      0.51016517	     -3.43460936	     21.26066728	    -44.28956401	    -27.86829164	    121.28988835	     91.84665842	     37.43304361	    -26.37770938	      0.12574963	    116.22475974	     94.58589853
      0.70000000	    -11.70122210	     -2.07164030	      0.50586737	     -0.72904840	      1.42587876	     -0.60555289	     22.84981708	     -0.19558591	     -4.52751083	     43.81800728	      0.76476850	    -16.76327294	    -14.34275496	     -4.72147987	     16.33218554	     -1.60011288	     -4.59418132	     39.58834124	      0.69094690	    -17.69044813	     -9.93744904	     -4.72147987	     -4.90377372	      0.36939966	     -2.84294262	     17.63473300	    -45.76991182	    -32.54968037	    121.24098642	     91.60047426	     36.87196310	    -26.22235165	     -0.56081082	    117.23877889	     95.12774652
      0.71000000	    -11.24586429	     -2.03940680	      0.57689955	     -0.71817100	      1.42779556	     -0.60596259	     22.97957177	     -0.33924715	     -4.76064073	     43.28943120	      0.75554311	    -16.75303787	    -14.34268835	     -4.74570930	     17.02046540	     -1.64720739	     -4.59788901	     40.38544993	      0.70485907	    -17.03969236	    -10.82886132	     -4.74570930	     -5.57027146	      0.32627975	     -3.29481686	     16.00566196	    -46.64357747	    -34.59221053	    120.29164816	     91.46171752	     34.98653570	    -26.95274378	     -2.39859116	    119.06074671	     95.26759091
      0.72000000	    -10.91933853	     -2.05987354	      0.62064778	     -0.70745205	      1.42879054	     -0.60607295	     23.08425109	     -0.34875125	     -4.84702128	     42.23009639	      0.73705423	    -16.87827929	    -13.91067041	     -5.14833820	     17.74423082	     -1.82108501	     -4.76822805	     40.68721294	      0.71012583	    -17.08952791	    -12.09531173	     -5.14833820	     -6.31129589	      0.18291771	     -1.73752513	      9.57221715	    -47.93591809	    -42.01020324	    120.85449548	     91.29152944	     34.99943553	    -26.08237384	     -2.14863001	    119.13374527	     95.48954521
      0.73000000	    -10.53118569	     -2.05130989	      0.64780640	     -0.69660913	      1.42916879	     -0.60613865	     22.98855314	     -0.36436159	     -4.86546140	     40.77830310	      0.71171565	    -16.93918088	    -12.99682853	     -5.19117824	     18.20826589	     -1.97944863	     -4.99673776	     40.42089380	      0.70547768	    -16.97000138	    -13.00884338	     -5.19117824	     -7.02119352	      0.17094214	     -2.16874695	      7.34323531	    -48.52365432	    -44.24464048	    120.08180747	     91.17464038	     32.78372476	    -26.72696736	     -4.41796740	    120.69816658	     95.61351079
      0.74000000	    -10.18198189	     -1.94594361	      0.64461972	     -0.68578727	      1.42858032	     -0.60607461	     22.90774246	     -0.48489888	     -4.84542640	     39.14209172	      0.68315838	    -16.86443630	    -11.68461068	     -5.51662504	     18.52176765	     -1.96805304	     -5.11981732	     39.54723634	      0.69022948	    -17.31235169	    -14.35594497	     -5.51662504	     -7.82454943	     -0.11548331	     -0.59871765	      0.10064753	    -49.15840431	    -51.81106910	    120.11511828	     91.10132278	     32.52585358	    -26.00488837	     -4.05548737	    120.62021739	     95.87367876
      0.75000000	     -9.89264963	     -1.87040528	      0.65147675	     -0.67482691	      1.42714721	     -0.60591735	     22.79075097	     -0.56005086	     -4.87337156	     37.20214158	      0.64929986	    -17.30638240	    -10.38393325	     -5.54065289	     18.77175707	     -2.02956984	     -5.27347010	     38.27928228	      0.66809951	    -17.09351378	    -14.63522939	     -5.54065289	     -8.46353047	     -0.23906330	     -1.12832795	     -2.34570798	    -49.45764411	    -53.72164346	    119.03516900	     90.98409987	     29.89729596	    -26.75426950	     -6.39481694	    122.09466490	     95.95148144
      0.76000000	     -9.56605003	     -1.74546994	      0.69462842	     -0.66383990	      1.42472689	     -0.60580688	     22.57438034	     -0.69470074	     -4.98650674	     35.10231041	      0.61265089	    -17.62581461	     -8.97378610	     -5.81831948	     18.86238931	     -2.02222230	     -5.40738186	     36.58955649	      0.63860823	    -17.24897041	    -14.80051888	     -5.81831948	     -9.28227783	     -0.50231763	      0.37364929	     -9.88605308	    -49.17164318	    -61.16013961	    118.87345326	     91.03738234	     29.34640735	    -26.14791210	     -6.15194905	    121.87197673	     95.74249269
      0.77000000	     -9.51233408	     -1.59070769	      0.73954360	     -0.65294146	      1.42109870	     -0.60579325	     22.62159128	     -0.81895526	     -4.97798656	     32.87844259	      0.57383708	    -18.30488987	     -7.87556197	     -5.83568824	     19.13239970	     -1.93887298	     -5.43622006	     34.54469327	      0.60291864	    -17.24959585	    -14.30251382	     -5.83568824	     -9.65076652	     -0.71362664	     -0.21258189	    -12.66648751	    -49.23955854	    -62.63373051	    117.57062418	     90.89146763	     26.44686290	    -26.87841970	     -8.43474034	    123.06810351	     95.73162206
      0.78000000	     -9.11367590	     -1.46773845	      0.82560639	     -0.64178725	      1.41668793	     -0.60578909	     22.27328500	     -0.96986128	     -5.25303544	     30.63002263	      0.53459474	    -19.07807059	     -6.75486556	     -6.05552121	     18.93813032	     -1.93159705	     -5.66721860	     32.23516216	      0.56260971	    -17.56834801	    -13.89302408	     -6.05552121	    -10.61670510	     -0.84037876	      0.81326242	    -19.71437094	    -48.43802357	    -68.69035809	    117.44813868	     90.68985151	     25.16724269	    -26.48995823	     -9.16694217	    123.11552741	     95.29478141
      0.79000000	     -9.00448742	     -1.28939930	      0.84106320	     -0.63066630	      1.41090473	     -0.60570215	     22.28198300	     -1.17107257	     -5.45613527	     28.43077431	      0.49621062	    -19.95567868	     -5.67604895	     -6.07408664	     18.97591084	     -1.87068942	     -5.92271342	     29.71937708	      0.51870098	    -18.07660320	    -13.13874225	     -6.07408664	    -11.09412328	     -1.02951606	      0.26356047	    -23.12929132	    -48.21580775	    -70.01815177	    116.44557765	     90.55941238	     21.94201183	    -27.09785609	    -11.63769597	    124.15671035	     95.28252855
